<svg height="511pt" viewBox="0 -1 511.99993 511" width="511pt" xmlns="http://www.w3.org/2000/svg"><path d="m411.097656 16.773438v485.351562h-310.222656v-485.351562c0-4.800782 3.890625-8.691407 8.691406-8.691407h292.839844c4.800781 0 8.691406 3.890625 8.691406 8.691407zm0 0" fill="#d2d2d7"/><path d="m411.097656 16.773438v485.351562h-279.902344v-485.351562c0-4.800782 3.894532-8.691407 8.695313-8.691407h262.515625c4.800781 0 8.691406 3.890625 8.691406 8.691407zm0 0" fill="#ebebf0"/><path d="m373.023438 343.554688c18.277343 19.285156 13.332031 59.242187 14.113281 96.125v.011718l87.378906-.03125v-78c0-19.488281 6.296875-29.382812 21.09375-62.101562 6.296875-13.910156 8.199219-26.140625 8.664063-37.703125.847656-20.800781-3.113282-41.511719-10.9375-60.796875l-54.308594-107.253906c-.03125-.0625.011718.019531-.222656-.425782-5.972657-11.035156-19.515626-16.109375-31.425782-11.300781-2.109375.859375-4.050781 1.972656-5.78125 3.296875-8.722656 6.679688-12.332031 18.660156-8.023437 29.300781l32.65625 84.664063c2.953125 7.640625 5.753906 19.882812 7.714843 29.542968 1.789063 8.824219 2.847657 17.78125 3.171876 26.777344.011718.160156.011718.324219.011718.492188 0 7.148437-5.804687 12.992187-13.019531 12.992187-7.1875 0-13.007813-5.8125-13.007813-13v-9.644531c0-16.171875-10.757812-30.605469-26.421874-34.617188-12.789063-3.265624-16.710938 3.609376-17.941407 13.464844l-10.828125 66.023438c-3.992187 31.867187 16.933594 51.882812 17.113282 52.183594zm0 0" fill="#f2bb88"/><path d="m355.910156 291.371094c-3.992187 31.867187 16.933594 51.882812 17.113282 52.183594 18.277343 19.285156 13.332031 59.242187 14.113281 96.125l57.054687-.019532v-78c0-19.488281 6.296875-29.382812 21.097656-62.101562 6.296876-13.910156 8.195313-26.140625 8.660157-37.703125.851562-20.800781-3.113281-41.511719-10.9375-60.796875l-54.308594-107.253906c-.027344-.0625.011719.019531-.222656-.425782-1.726563-3.203125-4.101563-5.902344-6.882813-8.003906-8.722656 6.679688-12.332031 18.660156-8.023437 29.300781l32.65625 84.664063c2.953125 7.640625 5.753906 19.882812 7.714843 29.542968 1.789063 8.824219 2.847657 17.78125 3.171876 26.777344.011718.160156.011718.324219.011718.492188 0 7.148437-5.804687 12.992187-13.019531 12.992187-7.1875 0-13.007813-5.8125-13.007813-13v-9.644531c0-16.171875-10.757812-30.605469-26.421874-34.617188-12.789063-3.265624-16.710938 3.609376-17.941407 13.464844zm0 0" fill="#f2d1a5"/><path d="m501.824219 434.402344v59.082031c0 4.769531-3.871094 8.640625-8.628907 8.640625h-126.105468c-4.769532 0-8.640625-3.871094-8.640625-8.640625v-59.082031c0-4.769532 3.871093-8.640625 8.640625-8.640625h126.105468c4.757813 0 8.628907 3.871093 8.628907 8.640625zm0 0" fill="#919196"/><path d="m138.949219 343.554688c-18.273438 19.285156-13.332031 59.242187-14.109375 96.125v.011718l-87.382813-.03125v-78c0-19.488281-6.296875-29.382812-21.09375-62.101562-6.296875-13.910156-8.199219-26.140625-8.664062-37.703125-.847657-20.800781 3.113281-41.511719 10.9375-60.796875l54.308593-107.253906c.03125-.0625-.007812.019531.222657-.425782 5.972656-11.035156 19.519531-16.109375 31.425781-11.300781 2.113281.859375 4.050781 1.972656 5.78125 3.296875 8.722656 6.679688 12.332031 18.660156 8.023438 29.300781l-32.65625 84.664063c-2.953126 7.640625-5.75 19.882812-7.710938 29.542968-1.789062 8.824219-2.851562 17.78125-3.175781 26.777344-.007813.160156-.007813.324219-.007813.492188 0 7.148437 5.800782 12.992187 13.015625 12.992187 7.1875 0 13.011719-5.8125 13.011719-13v-9.644531c0-16.171875 10.753906-30.605469 26.417969-34.617188 12.789062-3.265624 16.710937 3.609376 17.941406 13.464844l10.828125 66.023438c3.992188 31.867187-16.929688 51.882812-17.113281 52.183594zm0 0" fill="#f2bb88"/><path d="m156.0625 291.371094c3.992188 31.867187-16.929688 51.882812-17.113281 52.183594-18.273438 19.285156-13.332031 59.242187-14.109375 96.125l-57.058594-.019532v-78c0-19.488281-6.296875-29.382812-21.09375-62.101562-6.296875-13.910156-8.199219-26.140625-8.664062-37.703125-.847657-20.800781 3.113281-41.511719 10.9375-60.796875l54.308593-107.253906c.03125-.0625-.011719.019531.222657-.425782 1.726562-3.203125 4.101562-5.902344 6.882812-8.003906 8.722656 6.679688 12.332031 18.660156 8.023438 29.300781l-32.65625 84.664063c-2.953126 7.640625-5.75 19.882812-7.710938 29.542968-1.789062 8.824219-2.851562 17.78125-3.175781 26.777344-.007813.160156-.007813.324219-.007813.492188 0 7.148437 5.800782 12.992187 13.015625 12.992187 7.1875 0 13.011719-5.8125 13.011719-13v-9.644531c0-16.171875 10.753906-30.605469 26.417969-34.617188 12.789062-3.265624 16.710937 3.609376 17.941406 13.464844zm0 0" fill="#f2d1a5"/><path d="m153.523438 434.402344v59.082031c0 4.769531-3.871094 8.640625-8.640626 8.640625h-126.105468c-4.757813 0-8.628906-3.871094-8.628906-8.640625v-59.082031c0-4.769532 3.871093-8.640625 8.628906-8.640625h126.105468c4.769532 0 8.640626 3.871093 8.640626 8.640625zm0 0" fill="#919196"/><path d="m501.824219 434.402344v43.464844h-99.355469c-4.773438 0-8.644531-3.871094-8.644531-8.640626v-43.464843h99.371093c4.757813 0 8.628907 3.871093 8.628907 8.640625zm0 0" fill="#b9b9be"/><path d="m153.523438 434.402344v43.464844h-99.367188c-4.761719 0-8.632812-3.871094-8.632812-8.640626v-43.464843h99.359374c4.769532 0 8.640626 3.871093 8.640626 8.640625zm0 0" fill="#b9b9be"/><path d="m353.175781 155.316406h-94.03125c-4.738281 0-8.578125-3.839844-8.578125-8.578125v-92.007812c0-4.738281 3.839844-8.578125 8.578125-8.578125h94.03125c4.738281 0 8.578125 3.839844 8.578125 8.578125v92.007812c0 4.738281-3.839844 8.578125-8.578125 8.578125zm0 0" fill="#35e298"/><path d="m319.109375 118.929688h-25.894531c-18.296875 0-33.128906 14.832031-33.128906 33.125v3.261718h92.148437v-3.261718c0-18.292969-14.832031-33.125-33.125-33.125zm0 0" fill="#169b62"/><path d="m328.425781 83.550781c0 12.65625-10.257812 22.914063-22.910156 22.914063-12.65625 0-22.914063-10.257813-22.914063-22.914063 0-12.652343 10.257813-22.910156 22.914063-22.910156 12.652344 0 22.910156 10.257813 22.910156 22.910156zm0 0" fill="#169b62"/><path d="m168.890625 200.6875c0 4.1875 3.394531 7.582031 7.582031 7.582031h159.027344c4.1875 0 7.582031-3.394531 7.582031-7.582031 0-4.183594-3.394531-7.578125-7.582031-7.578125h-159.027344c-4.1875 0-7.582031 3.394531-7.582031 7.578125zm0 0"/><path d="m338.535156 244.789062c0-4.1875-3.394531-7.582031-7.578125-7.582031h-149.941406c-4.183594 0-7.578125 3.394531-7.578125 7.582031s3.394531 7.578126 7.578125 7.578126h149.941406c4.183594 0 7.578125-3.390626 7.578125-7.578126zm0 0"/><path d="m185.738281 281.308594c-4.1875 0-7.582031 3.394531-7.582031 7.578125 0 4.1875 3.394531 7.582031 7.582031 7.582031h140.496094c4.1875 0 7.582031-3.394531 7.582031-7.582031 0-4.183594-3.394531-7.578125-7.582031-7.578125zm0 0"/><path d="m216.230469 39.132812h-72.441407c-4.183593 0-7.578124 3.394532-7.578124 7.582032s3.394531 7.582031 7.578124 7.582031h72.441407c4.1875 0 7.578125-3.394531 7.578125-7.582031s-3.390625-7.582032-7.578125-7.582032zm0 0"/><path d="m143.789062 108.445312h72.441407c4.1875 0 7.578125-3.394531 7.578125-7.578124 0-4.1875-3.390625-7.582032-7.578125-7.582032h-72.441407c-4.183593 0-7.578124 3.394532-7.578124 7.582032 0 4.183593 3.394531 7.578124 7.578124 7.578124zm0 0"/><path d="m143.789062 162.597656h72.441407c4.1875 0 7.578125-3.394531 7.578125-7.582031 0-4.183594-3.390625-7.578125-7.578125-7.578125h-72.441407c-4.183593 0-7.578124 3.394531-7.578124 7.578125 0 4.1875 3.394531 7.582031 7.578124 7.582031zm0 0"/><path d="m336.183594 325.40625h-160.390625c-4.1875 0-7.582031 3.394531-7.582031 7.582031 0 4.183594 3.394531 7.578125 7.582031 7.578125h160.390625c4.183594 0 7.578125-3.394531 7.578125-7.578125 0-4.1875-3.394531-7.582031-7.578125-7.582031zm0 0"/><path d="m360.9375 377.085938c0-4.1875-3.394531-7.578126-7.578125-7.578126h-128.371094c-4.183593 0-7.578125 3.390626-7.578125 7.578126s3.394532 7.582031 7.578125 7.582031h128.371094c4.183594 0 7.578125-3.394531 7.578125-7.582031zm0 0"/><path d="m202.246094 377.085938c0-4.1875-3.394532-7.578126-7.578125-7.578126h-36.050781c-4.1875 0-7.582032 3.390626-7.582032 7.578126s3.394532 7.582031 7.582032 7.582031h36.050781c4.183593 0 7.578125-3.394531 7.578125-7.582031zm0 0"/><path d="m343.761719 421.1875c0-4.1875-3.394531-7.582031-7.578125-7.582031h-160.390625c-4.1875 0-7.582031 3.394531-7.582031 7.582031s3.394531 7.582031 7.582031 7.582031h160.390625c4.183594 0 7.578125-3.394531 7.578125-7.582031zm0 0"/><path d="m187.929688 457.703125c-4.1875 0-7.582032 3.394531-7.582032 7.582031s3.394532 7.582032 7.582032 7.582032h136.117187c4.183594 0 7.578125-3.394532 7.578125-7.582032s-3.394531-7.582031-7.578125-7.582031zm0 0"/><path d="m493.195312 418.179688h-11.101562v-56.519532c0-17.597656 5.488281-25.984375 20.429688-58.980468 14.578124-32.234376 11.136718-71.652344-2.164063-104.472657-.078125-.191406-.160156-.382812-.261719-.578125-45.933594-90.695312-54.097656-106.832031-54.632812-107.859375-5.539063-10.238281-15.816406-16.414062-26.785156-17.050781v-55.945312c0-8.976563-7.308594-16.273438-16.273438-16.273438h-232.8125c-4.183594 0-7.578125 3.394531-7.578125 7.582031 0 4.183594 3.394531 7.578125 7.578125 7.578125h232.8125c.605469 0 1.113281.496094 1.113281 1.113282v58.726562c-15.859375 7.015625-23.59375 25.59375-17.003906 41.964844l17.003906 44.070312v51.824219c-13.484375-11.550781-40.628906-18.339844-44.292969 10.894531-11.0625 67.527344-10.8125 65.96875-10.835937 66.175782-2.796875 22.3125 4.386719 41.039062 18.960937 58.160156 13.800782 13.785156 12.382813 48.089844 12.191407 68.933594 0 .222656 0 .433593-.011719.65625h-12.441406c-8.945313 0-16.222656 7.277343-16.222656 16.222656.011718 62.882812-.03125 59.308594.039062 60.140625h-189.839844c.070313-.835938.027344 2.804687.039063-60.140625 0-8.945313-7.277344-16.222656-16.222657-16.222656h-12.441406c-.011718-.222657-.011718-.433594-.011718-.65625-.261719-28.542969-.527344-55.511719 12.019531-68.753907.058593-.058593.109375-.121093.171875-.179687l.027344-.03125c5.429687-5.730469 22.855468-26.847656 18.933593-58.128906-.011719-.089844-.019531-.183594-.039062-.28125l-10.796875-65.894532c-3.59375-28.667968-30.222656-22.953125-44.292969-10.894531v-51.824219l17.003906-44.070312c6.558594-16.300782-1.0625-34.898438-17.003906-41.976563v-58.714843c0-.617188.507813-1.113282 1.113281-1.113282h29.707032c4.183593 0 7.578124-3.394531 7.578124-7.578125 0-4.1875-3.394531-7.582031-7.578124-7.582031h-29.707032c-8.964844 0-16.273437 7.296875-16.273437 16.273438v55.945312c-12.609375.746094-23.476563 9.179688-27.148438 17.75-39.757812 78.523438-54.3125 107.210938-54.53125 107.738281-8.492187 20.953125-12.363281 42.472657-11.492187 63.953125.992187 24.394532 7.242187 36.082032 15.808594 54.640625 10.148437 21.945313 13.945312 30.152344 13.945312 44.859375v56.519532h-11.097656c-8.933594 0-16.210938 7.277343-16.210938 16.222656v59.082031c0 8.945313 7.277344 16.222656 16.210938 16.222656h474.417968c8.933594 0 16.210938-7.277343 16.210938-16.222656v-21.976563c0-4.183593-3.394531-7.578124-7.582031-7.578124-4.183594 0-7.578125 3.394531-7.578125 7.578124v21.976563c0 .585937-.476563 1.058594-1.050782 1.058594-133.765624 0-127.167968.589843-127.167968-1.058594v-59.082031c0-.585938.476562-1.058594 1.0625-1.058594h126.105468c.574219 0 1.050782.472656 1.050782 1.058594v6.785156c0 4.183594 3.394531 7.578125 7.578125 7.578125 4.1875 0 7.582031-3.394531 7.582031-7.578125v-6.785156c0-8.945313-7.277344-16.222656-16.210938-16.222656zm-469.929687-121.746094c-12.769531-28.195313-9.34375-63.402344 2.273437-92.234375 17.613282-34.78125 54.109376-106.9375 54.210938-107.039063.09375-.101562 4.050781-8.175781 13.542969-9.21875 13.199219-1.484375 22.96875 11.820313 18.082031 23.894532-.300781 1.195312-32.660156 84.652343-32.707031 84.773437-10.324219 26.804687-11.394531 60.601563-11.394531 58.777344-.5 13.949219 12.695312 24.269531 26.019531 20.609375 8.734375-2.386719 15.160156-10.382813 15.160156-19.851563v-9.644531c0-12.9375 8.523437-24.144531 20.722656-27.269531 4.234375-1.082031 5.710938-.382813 6.054688-.152344 2.851562 2 2.609375 12.765625 13.320312 73.371094 3.023438 24.613281-10.632812 41.179687-14.898437 45.667969-.101563.101562-.203125.210937-.3125.34375-17.175782 18.261718-16.347656 50.128906-16.070313 79.71875-15.835937 0-56.878906 0-72.230469 0v-56.519532c0-21.453125-6.855468-32.257812-21.773437-65.226562zm70.027344-95.597656v55.308593c0 4.84375-5.949219 7.261719-9.351563 3.757813-1.652344-1.703125-1.496094-3.867188-1.515625-3.96875.710938-19.445313 6.765625-44.472656 10.390625-53.867188zm51.589843 293.707031c-32.160156 0-106.019531 0-126.105468 0-.574219 0-1.050782-.472657-1.050782-1.058594v-59.082031c0-.585938.476563-1.058594 1.050782-1.058594h126.105468c.585938 0 1.0625.472656 1.0625 1.058594-.476562 60.238281.992188 60.140625-1.0625 60.140625zm322.050782-76.363281c-15.351563 0-56.394532 0-72.230469 0 .238281-25.453126 1.632813-62.046876-16.382813-80.0625-4.265624-4.488282-17.921874-21.054688-14.898437-45.667969 11.671875-71.242188 11.226563-71.902344 13.320313-73.371094.34375-.230469 1.820312-.929687 6.054687.152344 12.199219 3.125 20.722656 14.332031 20.722656 27.269531v9.644531c0 18.386719 22.539063 27.65625 35.417969 14.28125 4.085938-4.242187 5.972656-9.726562 5.757812-15.050781-.34375-9.398438-1.464843-18.820312-3.324218-27.996094-5.382813-26.589844-3.648438-19.324218-40.734375-115.429687-3.621094-10.867188 1.707031-19.664063 9.582031-22.84375 8.425781-3.414063 18.132812.300781 22.046875 8.125l54.167969 106.96875c11.609375 28.820312 15.046875 64.03125 2.273437 92.234375-14.90625 32.941406-21.773437 43.796875-21.773437 65.226562zm-48.253906-162.035157c0-6.984375 0-48.464843 0-55.308593.28125.898437 3.269531 7.039062 7.832031 29.554687 1.699219 8.367187 2.71875 16.96875 3.035156 25.542969.105469 3.105468-2.355469 5.628906-5.4375 5.628906-2.992187 0-5.429687-2.425781-5.429687-5.417969zm0 0"/><path d="m260.085938 162.898438h101.667968c4.1875 0 7.582032-3.394532 7.582032-7.582032v-109.164062c0-4.1875-3.394532-7.582032-7.582032-7.582032h-111.183594c-4.1875 0-7.582031 3.394532-7.582031 7.582032v109.164062c0 4.1875 3.394531 7.582032 7.582031 7.582032zm7.945312-15.164063c2.058594-12.035156 12.566406-21.226563 25.179688-21.226563h25.898437c12.613281 0 23.121094 9.191407 25.179687 21.226563zm23.472656-63.507813c0-8.082031 6.574219-14.65625 14.65625-14.65625 8.082032 0 14.65625 6.574219 14.65625 14.65625 0 8.078126-6.574218 14.65625-14.65625 14.65625-8.082031 0-14.65625-6.574218-14.65625-14.65625zm-33.355468-30.492187h96.023437v77.675781c-7.089844-11.996094-20.148437-20.0625-35.0625-20.0625h-.582031c10.285156-4.707031 17.449218-15.089844 17.449218-27.121094 0-16.441406-13.375-29.820312-29.816406-29.820312s-29.816406 13.378906-29.816406 29.820312c0 12.03125 7.164062 22.414063 17.449219 27.121094h-.582031c-14.914063 0-27.972657 8.066406-35.0625 20.0625zm0 0"/></svg>